<svg width="144" height="144" viewBox="0 0 144 144" fill="none" xmlns="http://www.w3.org/2000/svg">
<g clip-path="url(#clip0_5_4)">
<rect width="144" height="144" fill="#81C3D6"/>
<path d="M10.1335 75.8182V74L24.7699 66.5455V69.4545L13.5426 74.8636L13.6335 74.6818V75.1364L13.5426 74.9545L24.7699 80.3636V83.2727L10.1335 75.8182ZM39.4545 84V66.5455H42.0455V69.1818H42.2273C42.5455 68.3182 43.1212 67.6174 43.9545 67.0795C44.7879 66.5417 45.7273 66.2727 46.7727 66.2727C46.9697 66.2727 47.2159 66.2765 47.5114 66.2841C47.8068 66.2917 48.0303 66.303 48.1818 66.3182V69.0455C48.0909 69.0227 47.8826 68.9886 47.5568 68.9432C47.2386 68.8902 46.9015 68.8636 46.5455 68.8636C45.697 68.8636 44.9394 69.0417 44.2727 69.3977C43.6136 69.7462 43.0909 70.2311 42.7045 70.8523C42.3258 71.4659 42.1364 72.1667 42.1364 72.9545V84H39.4545ZM51.7244 84V60.7273H54.4062V69.3182H54.6335C54.8305 69.0152 55.1032 68.6288 55.4517 68.1591C55.8078 67.6818 56.3153 67.2576 56.9744 66.8864C57.6411 66.5076 58.5426 66.3182 59.679 66.3182C61.1487 66.3182 62.4441 66.6856 63.5653 67.4205C64.6866 68.1553 65.5616 69.197 66.1903 70.5455C66.8191 71.8939 67.1335 73.4848 67.1335 75.3182C67.1335 77.1667 66.8191 78.7689 66.1903 80.125C65.5616 81.4735 64.6903 82.5189 63.5767 83.2614C62.4631 83.9962 61.179 84.3636 59.7244 84.3636C58.6032 84.3636 57.7055 84.178 57.0312 83.8068C56.357 83.428 55.8381 83 55.4744 82.5227C55.1108 82.0379 54.8305 81.6364 54.6335 81.3182H54.3153V84H51.7244ZM54.3608 75.2727C54.3608 76.5909 54.554 77.7538 54.9403 78.7614C55.3267 79.7614 55.8911 80.5455 56.6335 81.1136C57.3759 81.6742 58.285 81.9545 59.3608 81.9545C60.482 81.9545 61.4176 81.6591 62.1676 81.0682C62.9252 80.4697 63.4934 79.6667 63.8722 78.6591C64.2585 77.6439 64.4517 76.5152 64.4517 75.2727C64.4517 74.0455 64.2623 72.9394 63.8835 71.9545C63.5123 70.9621 62.9479 70.178 62.1903 69.6023C61.4403 69.0189 60.4972 68.7273 59.3608 68.7273C58.2699 68.7273 57.3532 69.0038 56.6108 69.5568C55.8684 70.1023 55.3078 70.8674 54.929 71.8523C54.5502 72.8295 54.3608 73.9697 54.3608 75.2727ZM78.2812 90.9091C76.9858 90.9091 75.8722 90.7424 74.9403 90.4091C74.0085 90.0833 73.232 89.6515 72.6108 89.1136C71.9972 88.5833 71.5085 88.0152 71.1449 87.4091L73.2812 85.9091C73.5237 86.2273 73.8305 86.5909 74.2017 87C74.5729 87.4167 75.0805 87.7765 75.7244 88.0795C76.3759 88.3902 77.2282 88.5455 78.2812 88.5455C79.6903 88.5455 80.8532 88.2045 81.7699 87.5227C82.6866 86.8409 83.1449 85.7727 83.1449 84.3182V80.7727H82.9176C82.7206 81.0909 82.4403 81.4848 82.0767 81.9545C81.7206 82.4167 81.2055 82.8295 80.5312 83.1932C79.8646 83.5492 78.9631 83.7273 77.8267 83.7273C76.4176 83.7273 75.1525 83.3939 74.0312 82.7273C72.9176 82.0606 72.035 81.0909 71.3835 79.8182C70.7396 78.5455 70.4176 77 70.4176 75.1818C70.4176 73.3939 70.732 71.8371 71.3608 70.5114C71.9896 69.178 72.8646 68.1477 73.9858 67.4205C75.107 66.6856 76.4025 66.3182 77.8722 66.3182C79.0085 66.3182 79.91 66.5076 80.5767 66.8864C81.2509 67.2576 81.7661 67.6818 82.1222 68.1591C82.4858 68.6288 82.7661 69.0152 82.9631 69.3182H83.2358V66.5455H85.8267V84.5C85.8267 86 85.4858 87.2197 84.804 88.1591C84.1297 89.1061 83.2206 89.7992 82.0767 90.2386C80.9403 90.6856 79.6752 90.9091 78.2812 90.9091ZM78.1903 81.3182C79.2661 81.3182 80.1752 81.072 80.9176 80.5795C81.66 80.0871 82.2244 79.3788 82.6108 78.4545C82.9972 77.5303 83.1903 76.4242 83.1903 75.1364C83.1903 73.8788 83.0009 72.7689 82.6222 71.8068C82.2434 70.8447 81.6828 70.0909 80.9403 69.5455C80.1979 69 79.2813 68.7273 78.1903 68.7273C77.054 68.7273 76.107 69.0152 75.3494 69.5909C74.5994 70.1667 74.035 70.9394 73.6562 71.9091C73.285 72.8788 73.0994 73.9545 73.0994 75.1364C73.0994 76.3485 73.2888 77.4205 73.6676 78.3523C74.054 79.2765 74.6222 80.0038 75.3722 80.5341C76.1297 81.0568 77.0691 81.3182 78.1903 81.3182ZM93.4176 73.5V84H90.7358V66.5455H93.3267V69.2727H93.554C93.9631 68.3864 94.5843 67.6742 95.4176 67.1364C96.2509 66.5909 97.3267 66.3182 98.6449 66.3182C99.8267 66.3182 100.861 66.5606 101.747 67.0455C102.634 67.5227 103.323 68.25 103.815 69.2273C104.308 70.197 104.554 71.4242 104.554 72.9091V84H101.872V73.0909C101.872 71.7197 101.516 70.6515 100.804 69.8864C100.092 69.1136 99.1146 68.7273 97.8722 68.7273C97.0161 68.7273 96.2509 68.9129 95.5767 69.2841C94.91 69.6553 94.3835 70.197 93.9972 70.9091C93.6108 71.6212 93.4176 72.4848 93.4176 73.5ZM133.864 75.8182L119.227 83.2727V80.3636L130.455 74.9545L130.364 75.1364V74.6818L130.455 74.8636L119.227 69.4545V66.5455L133.864 74V75.8182Z" fill="#1F5260"/>
</g>
<defs>
<clipPath id="clip0_5_4">
<rect width="144" height="144" fill="white"/>
</clipPath>
</defs>
</svg>
